<svg width="96" xmlns="http://www.w3.org/2000/svg" height="96" viewBox="0 0 96 96" xmlns:xlink="http://www.w3.org/1999/xlink">
<path d="m34.869,22.809l18.186,10.5c1.437,.828 3.27,.336 4.095-1.098 .831-1.434 .339-3.27-1.095-4.095l-18.186-10.5c-1.437-.828-3.27-.336-4.098,1.095-.831,1.434-.336,3.267 1.098,4.098zm16.689,13.098l-18.186-10.5-10.5,18.186 18.186,10.5 10.5-18.186zm-33.189,15.48l18.186,10.5c1.434,.828 3.27,.336 4.095-1.098 .828-1.434 .336-3.27-1.095-4.095l-18.186-10.5c-1.437-.828-3.27-.336-4.098,1.095-.831,1.434-.336,3.27 1.098,4.098zm62.667,8.466l-33.228-17.451-3,5.196 31.728,20.049c2.151,1.242 4.905,.507 6.147-1.647s.504-4.905-1.647-6.147zm-32.937,15.147c0-1.659-1.344-3-3-3h-27c-1.659,0-3,1.341-3,3 0,1.656 0,3 0,3l-3.099-.063 .099,3.063h39l.141-2.874-2.952-.126c0,0-.189-1.344-.189-3z"/>
</svg>
